<?xml version="1.0" encoding="utf-8"?>
<!-- Generator: Adobe Illustrator 18.0.0, SVG Export Plug-In . SVG Version: 6.00 Build 0)  -->
<!DOCTYPE svg PUBLIC "-//W3C//DTD SVG 1.1//EN" "http://www.w3.org/Graphics/SVG/1.1/DTD/svg11.dtd">
<svg version="1.1" id="Layer_1" xmlns="http://www.w3.org/2000/svg" xmlns:xlink="http://www.w3.org/1999/xlink" x="0px" y="0px"
	 viewBox="0 0 150.1 21.7" enable-background="new 0 0 150.1 21.7" xml:space="preserve">
<g>
	<defs>
		<rect id="SVGID_1_" y="0" width="150.1" height="21.7"/>
	</defs>
	<clipPath id="SVGID_2_">
		<use xlink:href="#SVGID_1_"  overflow="visible"/>
	</clipPath>
	<path clip-path="url(#SVGID_2_)" fill="#F26524" d="M21.1,21.7H2.9c-1.6,0-2.9-1.3-2.9-2.9v-1h2.2v1c0,0.4,0.3,0.7,0.7,0.7h18.3
		c0.4,0,0.7-0.3,0.7-0.7v-6.2c0-0.4-0.3-0.7-0.7-0.7H2.9C1.3,12,0,10.7,0,9.1V2.9C0,1.3,1.3,0,2.9,0h18.3C22.7,0,24,1.3,24,2.9v1.3
		h-2.2V2.9c0-0.4-0.3-0.7-0.7-0.7H2.9c-0.4,0-0.7,0.3-0.7,0.7v6.2c0,0.4,0.3,0.7,0.7,0.7h18.3c1.6,0,2.9,1.3,2.9,2.9v6.2
		C24,20.5,22.7,21.7,21.1,21.7"/>
	<path clip-path="url(#SVGID_2_)" fill="#F26524" d="M16.6,17.5h-9c-1.6,0-2.9-1.3-2.9-2.9V7.5c0-1.6,1.3-2.9,2.9-2.9h9.2
		c1.6,0,2.9,1.3,2.9,2.9v0.7h-2.2V7.5c0-0.4-0.3-0.7-0.7-0.7H7.6c-0.4,0-0.7,0.3-0.7,0.7v7.2c0,0.4,0.3,0.7,0.7,0.7h9
		c0.5,0,0.9-0.4,0.9-0.9v-0.9h2.2v0.9C19.6,16.2,18.3,17.5,16.6,17.5"/>
	<path clip-path="url(#SVGID_2_)" fill="#104777" d="M40.1,9.1c0-0.2-0.1-0.3-0.2-0.4l-2.7-2.6c-0.3-0.3-0.4-0.7-0.4-1.1v-1
		c0-0.7,0.6-1.3,1.3-1.3h1.6c0.7,0,1.3,0.6,1.3,1.3v1.3h-1V3.9c0-0.2-0.1-0.3-0.3-0.3h-1.6c-0.2,0-0.3,0.1-0.3,0.3v1
		c0,0.2,0.1,0.3,0.2,0.4L40.7,8c0.3,0.3,0.4,0.7,0.4,1.1v1.3c0,0.7-0.6,1.3-1.3,1.3h-1.6c-0.7,0-1.3-0.6-1.3-1.3V9.1h1v1.3
		c0,0.2,0.1,0.3,0.3,0.3h1.6c0.2,0,0.3-0.1,0.3-0.3V9.1z"/>
	<polygon clip-path="url(#SVGID_2_)" fill="#104777" points="48.5,3.6 46.9,3.6 46.9,11.7 45.9,11.7 45.9,3.6 44.3,3.6 44.3,2.6 
		48.5,2.6 	"/>
	<path clip-path="url(#SVGID_2_)" fill="#104777" d="M55,7.9l0.9,3.9h-1l-0.8-3.8h-1.4v3.8h-1V2.6h2.9c0.7,0,1.3,0.6,1.3,1.3v2.7
		C55.9,7.2,55.6,7.7,55,7.9 M55,3.9c0-0.2-0.1-0.3-0.3-0.3h-2V7h2C54.8,7,55,6.8,55,6.6V3.9z"/>
	<path clip-path="url(#SVGID_2_)" fill="#104777" d="M63.7,10.4c0,0.7-0.6,1.3-1.3,1.3h-1.6c-0.7,0-1.3-0.6-1.3-1.3V3.9
		c0-0.7,0.6-1.3,1.3-1.3h1.6c0.7,0,1.3,0.6,1.3,1.3V10.4z M62.7,3.9c0-0.2-0.1-0.3-0.3-0.3h-1.6c-0.2,0-0.3,0.1-0.3,0.3v6.5
		c0,0.2,0.1,0.3,0.3,0.3h1.6c0.2,0,0.3-0.1,0.3-0.3V3.9z"/>
	<path clip-path="url(#SVGID_2_)" fill="#104777" d="M71.5,10.4c0,0.7-0.6,1.3-1.3,1.3h-1.6c-0.7,0-1.3-0.6-1.3-1.3V2.6h1v7.8
		c0,0.2,0.1,0.3,0.3,0.3h1.6c0.2,0,0.3-0.1,0.3-0.3V2.6h1V10.4z"/>
	<path clip-path="url(#SVGID_2_)" fill="#104777" d="M79.2,10.4c0,0.7-0.6,1.3-1.3,1.3H75V2.6h2.9c0.7,0,1.3,0.6,1.3,1.3V10.4z
		 M78.2,3.9c0-0.2-0.1-0.3-0.3-0.3h-2v7.2h2c0.2,0,0.3-0.1,0.3-0.3V3.9z"/>
	<path clip-path="url(#SVGID_2_)" fill="#104777" d="M91.6,10.4c0,0.7-0.6,1.3-1.3,1.3h-1.6c-0.7,0-1.3-0.6-1.3-1.3V3.9
		c0-0.7,0.6-1.3,1.3-1.3h1.6c0.7,0,1.3,0.6,1.3,1.3v1.1h-1V3.9c0-0.2-0.1-0.3-0.3-0.3h-1.6c-0.2,0-0.3,0.1-0.3,0.3v6.5
		c0,0.2,0.1,0.3,0.3,0.3h1.6c0.2,0,0.3-0.1,0.3-0.3V9.3h1V10.4z"/>
	<path clip-path="url(#SVGID_2_)" fill="#104777" d="M99.4,10.4c0,0.7-0.6,1.3-1.3,1.3h-1.6c-0.7,0-1.3-0.6-1.3-1.3V3.9
		c0-0.7,0.6-1.3,1.3-1.3h1.6c0.7,0,1.3,0.6,1.3,1.3V10.4z M98.4,3.9c0-0.2-0.1-0.3-0.3-0.3h-1.6c-0.2,0-0.3,0.1-0.3,0.3v6.5
		c0,0.2,0.1,0.3,0.3,0.3h1.6c0.2,0,0.3-0.1,0.3-0.3V3.9z"/>
	<polygon clip-path="url(#SVGID_2_)" fill="#104777" points="108.7,11.7 107.7,11.7 107.7,4.8 106,11.1 105.6,11.1 103.9,4.8 
		103.9,11.7 102.9,11.7 102.9,2.6 104.2,2.6 105.8,8.4 107.4,2.6 108.7,2.6 	"/>
	<path clip-path="url(#SVGID_2_)" fill="#104777" d="M116.4,7c0,0.7-0.6,1.3-1.3,1.3h-2v3.5h-1V2.6h2.9c0.7,0,1.3,0.6,1.3,1.3V7z
		 M115.5,3.9c0-0.2-0.1-0.3-0.3-0.3h-2v3.7h2c0.2,0,0.3-0.1,0.3-0.3V3.9z"/>
	<path clip-path="url(#SVGID_2_)" fill="#104777" d="M122.5,10.3H120l-0.3,1.5h-1l2-9.1h1.2l2,9.1h-1L122.5,10.3z M120.2,9.3h2.1
		l-1.1-5.1L120.2,9.3z"/>
	<polygon clip-path="url(#SVGID_2_)" fill="#104777" points="131.1,11.7 130.3,11.7 127.8,5 127.8,11.7 126.9,11.7 126.9,2.6 
		127.9,2.6 130.1,8.8 130.1,2.6 131.1,2.6 	"/>
	<rect x="134.6" y="2.6" clip-path="url(#SVGID_2_)" fill="#104777" width="1" height="9.1"/>
	<polygon clip-path="url(#SVGID_2_)" fill="#104777" points="142.7,11.7 139.1,11.7 139.1,2.6 142.7,2.6 142.7,3.6 140.1,3.6 
		140.1,6.4 142,6.4 142,7.4 140.1,7.4 140.1,10.8 142.7,10.8 	"/>
	<path clip-path="url(#SVGID_2_)" fill="#104777" d="M149.1,9.1c0-0.2-0.1-0.3-0.2-0.4l-2.7-2.6c-0.3-0.3-0.4-0.7-0.4-1.1v-1
		c0-0.7,0.6-1.3,1.3-1.3h1.6c0.7,0,1.3,0.6,1.3,1.3v1.3h-1V3.9c0-0.2-0.1-0.3-0.3-0.3h-1.6c-0.2,0-0.3,0.1-0.3,0.3v1
		c0,0.2,0.1,0.3,0.2,0.4l2.7,2.6c0.3,0.3,0.4,0.7,0.4,1.1v1.3c0,0.7-0.6,1.3-1.3,1.3h-1.6c-0.7,0-1.3-0.6-1.3-1.3V9.1h1v1.3
		c0,0.2,0.1,0.3,0.3,0.3h1.6c0.2,0,0.3-0.1,0.3-0.3V9.1z"/>
	<path clip-path="url(#SVGID_2_)" fill="#104777" d="M37.9,18l-0.4-0.2c-0.2-0.1-0.4-0.3-0.5-0.4c-0.1-0.1-0.2-0.3-0.2-0.5
		c0-0.3,0.1-0.5,0.3-0.7c0.2-0.2,0.4-0.3,0.8-0.3c0.3,0,0.6,0.1,0.8,0.2v0.6c-0.3-0.2-0.5-0.4-0.8-0.4c-0.2,0-0.3,0-0.4,0.1
		c-0.1,0.1-0.2,0.2-0.2,0.3c0,0.1,0,0.2,0.1,0.3c0.1,0.1,0.2,0.2,0.4,0.3l0.4,0.2c0.4,0.3,0.6,0.6,0.6,1c0,0.3-0.1,0.5-0.3,0.7
		c-0.2,0.2-0.4,0.3-0.7,0.3c-0.3,0-0.7-0.1-1-0.3v-0.6c0.3,0.3,0.6,0.5,0.9,0.5c0.2,0,0.3,0,0.4-0.1c0.1-0.1,0.2-0.2,0.2-0.3
		C38.4,18.4,38.2,18.2,37.9,18"/>
	<rect x="41" y="15.9" clip-path="url(#SVGID_2_)" fill="#104777" width="0.5" height="3.5"/>
	<polygon clip-path="url(#SVGID_2_)" fill="#104777" points="46.6,15.9 47.1,15.9 47.1,19.5 46.7,19.5 44.3,16.7 44.3,19.5 
		43.8,19.5 43.8,15.9 44.2,15.9 46.6,18.7 	"/>
	<path clip-path="url(#SVGID_2_)" fill="#104777" d="M52.5,18.6v0.6c-0.4,0.2-0.8,0.3-1.3,0.3c-0.4,0-0.7-0.1-1-0.2
		c-0.3-0.2-0.5-0.4-0.7-0.7c-0.2-0.3-0.2-0.6-0.2-0.9c0-0.5,0.2-0.9,0.5-1.3c0.4-0.4,0.8-0.5,1.4-0.5c0.4,0,0.8,0.1,1.2,0.3v0.5
		c-0.4-0.2-0.8-0.4-1.2-0.4c-0.4,0-0.7,0.1-1,0.4c-0.3,0.3-0.4,0.6-0.4,1c0,0.4,0.1,0.7,0.4,1c0.3,0.2,0.6,0.4,1,0.4
		C51.6,19,52.1,18.9,52.5,18.6"/>
	<polygon clip-path="url(#SVGID_2_)" fill="#104777" points="54.6,15.9 56.6,15.9 56.6,16.4 55.1,16.4 55.1,17.5 56.6,17.5 
		56.6,17.9 55.1,17.9 55.1,19 56.7,19 56.7,19.5 54.6,19.5 	"/>
	<rect x="62.4" y="15.9" clip-path="url(#SVGID_2_)" fill="#104777" width="0.5" height="3.5"/>
	<path clip-path="url(#SVGID_2_)" fill="#104777" d="M66.5,19.5l-0.3-0.4c0.3-0.2,0.5-0.4,0.7-0.6c0.2-0.2,0.3-0.5,0.4-0.7
		c-0.2,0.1-0.3,0.1-0.6,0.1c-0.3,0-0.5-0.1-0.7-0.3c-0.2-0.2-0.3-0.4-0.3-0.7c0-0.3,0.1-0.5,0.3-0.7s0.5-0.3,0.8-0.3
		c0.3,0,0.6,0.1,0.8,0.4c0.2,0.2,0.3,0.6,0.3,0.9c0,0.4-0.1,0.9-0.4,1.3C67.3,18.9,66.9,19.3,66.5,19.5 M67.4,17.3
		c0-0.1,0-0.2,0-0.3c0-0.2-0.1-0.4-0.2-0.5c-0.1-0.1-0.3-0.2-0.4-0.2c-0.2,0-0.3,0.1-0.4,0.2c-0.1,0.1-0.2,0.2-0.2,0.4
		c0,0.2,0.1,0.3,0.2,0.4c0.1,0.1,0.3,0.2,0.4,0.2C67,17.5,67.2,17.4,67.4,17.3"/>
	<path clip-path="url(#SVGID_2_)" fill="#104777" d="M69.9,16.9c0-0.3,0.1-0.5,0.3-0.7c0.2-0.2,0.5-0.3,0.8-0.3
		c0.3,0,0.5,0.1,0.7,0.3c0.2,0.2,0.3,0.4,0.3,0.7c0,0.3-0.1,0.6-0.4,0.8c0.3,0.2,0.5,0.5,0.5,0.8c0,0.3-0.1,0.5-0.3,0.7
		c-0.2,0.2-0.5,0.3-0.8,0.3c-0.3,0-0.6-0.1-0.8-0.3c-0.2-0.2-0.3-0.4-0.3-0.7c0-0.4,0.2-0.6,0.5-0.8c-0.2-0.1-0.3-0.2-0.3-0.4
		C70,17.2,69.9,17,69.9,16.9 M71.6,18.5L71.6,18.5c0-0.2-0.1-0.3-0.2-0.4c-0.1-0.1-0.3-0.2-0.4-0.2c-0.2,0-0.3,0.1-0.4,0.2
		c-0.1,0.1-0.2,0.2-0.2,0.4s0.1,0.3,0.2,0.4C70.6,19,70.8,19,71,19c0.2,0,0.3,0,0.4-0.1C71.5,18.8,71.6,18.7,71.6,18.5 M71.5,16.9
		c0-0.2-0.1-0.3-0.2-0.4c-0.1-0.1-0.2-0.1-0.4-0.1c-0.2,0-0.3,0-0.4,0.1c-0.1,0.1-0.2,0.2-0.2,0.4c0,0.1,0.1,0.3,0.2,0.4
		c0.1,0.1,0.2,0.2,0.4,0.2c0.2,0,0.3-0.1,0.4-0.2C71.5,17.2,71.5,17,71.5,16.9"/>
	<path clip-path="url(#SVGID_2_)" fill="#104777" d="M74.9,19h1.3v0.5H74v0l0.2-0.3c0.3-0.4,0.6-0.8,0.8-1c0.2-0.3,0.3-0.5,0.4-0.7
		c0.1-0.1,0.1-0.3,0.1-0.4c0-0.2-0.1-0.4-0.2-0.5c-0.1-0.1-0.3-0.2-0.5-0.2c-0.1,0-0.3,0-0.4,0.1c-0.1,0.1-0.3,0.2-0.4,0.4v-0.6
		c0.3-0.2,0.6-0.3,0.9-0.3c0.3,0,0.6,0.1,0.8,0.3c0.2,0.2,0.3,0.5,0.3,0.8c0,0.1,0,0.3-0.1,0.5c-0.1,0.2-0.1,0.3-0.3,0.6
		c-0.1,0.2-0.3,0.5-0.6,0.9L74.9,19z"/>
</g>
</svg>
